<svg id="svg" version="1.1" xmlns="http://www.w3.org/2000/svg" xmlns:xlink="http://www.w3.org/1999/xlink" width="400" height="400" viewBox="0, 0, 400,400"><g id="svgg"><path id="path0" d="M6.726 1.848 C 0.916 5.365,-1.676 13.356,0.817 20.066 C 1.270 21.285,22.077 42.726,47.494 68.164 L 93.354 114.063 87.444 114.063 C 74.666 114.063,65.161 119.668,59.624 130.469 L 57.422 134.766 57.422 200.000 L 57.422 265.234 59.545 269.557 C 62.255 275.076,67.884 280.705,73.408 283.420 L 77.734 285.547 114.853 285.938 L 151.972 286.328 221.494 341.883 C 259.731 372.439,292.213 398.052,293.677 398.803 C 297.752 400.891,305.208 400.199,308.891 397.389 C 314.437 393.160,314.409 393.321,314.844 363.081 L 315.234 335.927 346.094 366.843 C 379.600 400.410,379.111 400.000,385.635 400.000 C 396.409 400.000,403.243 389.426,398.905 379.467 C 397.467 376.165,23.033 1.918,20.066 0.816 C 16.137 -0.642,10.065 -0.173,6.726 1.848 M293.416 1.301 C 291.850 2.149,178.673 91.746,164.096 103.677 C 163.648 104.044,313.451 253.906,314.266 253.906 C 314.594 253.906,314.771 198.917,314.658 131.708 L 314.453 9.509 312.109 6.203 C 307.955 0.341,299.354 -1.914,293.416 1.301 " stroke="none" fill="#000000" fill-rule="evenodd"></path></g></svg>